{
  "accessors": [
    {
      "bufferView": 2,
      "componentType": 5126,
      "count": 3931,
      "max": [
        1.681119441986084,
        0.5779472589492798,
        0.4962012469768524
      ],
      "min": [
        -1.6814199686050415,
        -1.1668847799301147,
        -0.24303776025772095
      ],
      "type": "VEC3"
    },
    {
      "bufferView": 2,
      "byteOffset": 47172,
      "componentType": 5126,
      "count": 3931,
      "max": [
        0.9957716464996338,
        0.9962157011032104,
        0.9999583959579468
      ],
      "min": [
        -0.9986933469772339,
        -1.0,
        -0.999851644039154
      ],
      "type": "VEC3"
    },
    {
      "bufferView": 3,
      "componentType": 5126,
      "count": 3931,
      "max": [
        0.9999973177909851,
        0.9999114274978638,
        0.998802900314331,
        1.0
      ],
      "min": [
        -0.9999544024467468,
        -0.9999572038650513,
        -0.9986683130264282,
        -1.0
      ],
      "type": "VEC4"
    },
    {
      "bufferView": 1,
      "componentType": 5126,
      "count": 3931,
      "max": [
        0.9958829879760742,
        0.9959700107574463
      ],
      "min": [
        0.001006999984383583,
        0.001006999984383583
      ],
      "type": "VEC2"
    },
    {
      "bufferView": 0,
      "componentType": 5125,
      "count": 17778,
      "type": "SCALAR"
    }
  ],
  "asset": {
    "extras": {
      "author": "Batuhan13 (https://sketchfab.com/Batuhan13)",
      "license": "CC-BY-4.0 (http://creativecommons.org/licenses/by/4.0/)",
      "source": "https://sketchfab.com/3d-models/mm-red-man-ca8f5c463d104ef5a147e091ade98c5c",
      "title": "M&M Red Man"
    },
    "generator": "Sketchfab-12.65.0",
    "version": "2.0"
  },
  "bufferViews": [
    {
      "buffer": 0,
      "byteLength": 71112,
      "name": "floatBufferViews",
      "target": 34963
    },
    {
      "buffer": 0,
      "byteLength": 31448,
      "byteOffset": 71112,
      "byteStride": 8,
      "name": "floatBufferViews",
      "target": 34962
    },
    {
      "buffer": 0,
      "byteLength": 94344,
      "byteOffset": 102560,
      "byteStride": 12,
      "name": "floatBufferViews",
      "target": 34962
    },
    {
      "buffer": 0,
      "byteLength": 62896,
      "byteOffset": 196904,
      "byteStride": 16,
      "name": "floatBufferViews",
      "target": 34962
    }
  ],
  "buffers": [
    {
      "byteLength": 259800,
      "uri": "scene.bin"
    }
  ],
  "images": [
    {
      "uri": "textures/MandM_baseColor.png"
    },
    {
      "uri": "textures/MandM_normal.png"
    }
  ],
  "materials": [
    {
      "doubleSided": true,
      "name": "MandM",
      "normalTexture": {
        "index": 1
      },
      "pbrMetallicRoughness": {
        "baseColorTexture": {
          "index": 0
        },
        "metallicFactor": 0.0,
        "roughnessFactor": 0.256582230889883
      }
    }
  ],
  "meshes": [
    {
      "name": "MandM_MandM_0",
      "primitives": [
        {
          "attributes": {
            "NORMAL": 1,
            "POSITION": 0,
            "TANGENT": 2,
            "TEXCOORD_0": 3
          },
          "indices": 4,
          "material": 0,
          "mode": 4
        }
      ]
    }
  ],
  "nodes": [
    {
      "children": [
        1
      ],
      "matrix": [
        1.0,
        0.0,
        0.0,
        0.0,
        0.0,
        2.220446049250313e-16,
        -1.0,
        0.0,
        0.0,
        1.0,
        2.220446049250313e-16,
        0.0,
        0.0,
        0.0,
        0.0,
        1.0
      ],
      "name": "Sketchfab_model"
    },
    {
      "children": [
        2
      ],
      "matrix": [
        1.0,
        0.0,
        0.0,
        0.0,
        0.0,
        0.0,
        1.0,
        0.0,
        0.0,
        -1.0,
        0.0,
        0.0,
        0.0,
        0.0,
        0.0,
        1.0
      ],
      "name": "MandMLow.fbx"
    },
    {
      "children": [
        3
      ],
      "name": "RootNode"
    },
    {
      "children": [
        4
      ],
      "matrix": [
        500.0,
        0.0,
        0.0,
        0.0,
        0.0,
        499.99999999999335,
        8.146034247147293e-05,
        0.0,
        0.0,
        -8.146034247147293e-05,
        499.99999999999335,
        0.0,
        0.0,
        0.0,
        0.0,
        1.0
      ],
      "name": "MandM"
    },
    {
      "mesh": 0,
      "name": "MandM_MandM_0"
    }
  ],
  "samplers": [
    {
      "magFilter": 9729,
      "minFilter": 9987,
      "wrapS": 10497,
      "wrapT": 10497
    }
  ],
  "scene": 0,
  "scenes": [
    {
      "name": "Sketchfab_Scene",
      "nodes": [
        0
      ]
    }
  ],
  "textures": [
    {
      "sampler": 0,
      "source": 0
    },
    {
      "sampler": 0,
      "source": 1
    }
  ]
}
